<svg xmlns="http://www.w3.org/2000/svg" xmlns:xlink="http://www.w3.org/1999/xlink" style="vertical-align:-.255ex" width="10.781ex" height="2.134ex" viewBox="0 -809.3 4641.6 918.9"><defs><path id="a" stroke-width="1" d="M137 683q1 0 72 5t73 6q12 0 12-9 0-11-36-151-38-148-38-151 0-2 7 5 61 54 130 54 54 0 87-27t34-79q0-51-38-158T402 50q1-14 5-19t15-5q28 0 52 30t39 82q3 11 6 13t16 2q20 0 20-8 0-1-4-15-16-59-51-97-34-43-81-43h-5q-47 0-68 27t-21 57q0 16 36 118t37 153q0 59-44 59h-5q-83 0-144-98l-7-13-34-135Q132 28 127 16q-13-27-44-27-14 0-24 9T48 16q0 14 73 304l74 296q0 13-7 16t-39 5h-21q-6 6-6 8t2 19q5 19 13 19z"/><path id="b" stroke-width="1" d="M78 370q0 24 17 42t43 18q24 0 42-16t19-43q0-25-17-43t-43-18-43 17-18 43zm0-310q0 24 17 42t43 18q24 0 42-16t19-43q0-25-17-43T139 0 96 17 78 60z"/><path id="c" stroke-width="1" d="M50 252q0 115 67 221t169 168 204 63q90 0 143-51 9-10 15-17t8-10l1-3q3 0 27 26 7 6 15 14t16 16 10 11l15 15h6q14 0 14-7 0-4-32-137-36-139-36-140-2-5-5-6t-18-2h-16q-6 6-6 9 0 1 1 7t2 20 1 32q0 71-32 124t-109 54q-18 0-39-3t-53-13-61-28-63-48-58-71-47-102-31-134q-2-18-2-39 0-48 14-85t36-57 50-34 52-17 45-4q54 0 99 23t62 59q3 8 15 55t12 53q0 8-13 10t-60 3h-37q-6 6-6 8t2 19q4 13 10 19h17q40-2 140-2h65q25 0 36 1t12 0q14 0 14-9 0-2-2-14-5-19-10-21-3-1-15-1-20 0-41-3-7-3-10-9t-14-51q-9-33-15-56Q589 6 586 3q-2-2-5-2-10 0-28 20t-23 31q0 1-2 0t-6-5q-74-69-200-69-121 0-196 77T50 252z"/><path id="d" stroke-width="1" d="M56 237v13l14 20h765q-116 87-143 223v3q0 2-1 3 0 12 17 12h3q9 0 12-1t6-4 3-9 3-16 8-25q22-67 73-120t119-75q9-3 9-11 0-6-5-9t-24-10-38-19q-41-26-71-60t-45-67-21-50-8-31q-2-10-5-12t-16-3q-20 0-20 11 0 7 5 25 32 126 139 205H70q-14 7-14 20z"/><path id="e" stroke-width="1" d="M228 637q-34 0-36 4-1 2-1 8 0 24 11 33 2 1 17 1 41-2 136-2h63q29 0 45 1t20 0q16 0 16-10 0-2-2-14-5-17-10-20h-14q-4 0-9-1t-9 0q-39-1-50-3t-18-11q-3-4-32-123-7-26-15-58t-12-47l-4-15q0-2 145-2h145l1 3q0 3 31 123 28 115 28 123t-57 10q-23 0-30 2t-7 9q0 2 2 12 4 17 6 19t16 3q5 0 42-1t94-1q62 0 95 1t36 1q17 0 17-10 0-27-12-34h-14q-4 0-9-1t-9 0q-39-1-50-3t-18-11q-3-5-72-283T634 58q0-7 4-7 8-3 54-5h31q6-8 6-9t-3-18q-4-13-10-19h-15q-37 2-134 2H458q-17 0-21-1-17 0-17 9 0 5 3 14 5 19 10 21 4 1 15 1h6q27 0 60 3 6 1 8 1t6 5 6 9 6 18 7 28 11 43q7 28 11 45 33 132 33 133t-145 1H312l-33-135Q245 63 245 58q0-7 8-9t50-3h31q6-8 6-9t-3-18q-4-13-10-19h-15q-37 2-134 2H69Q52 2 48 1q-17 0-17 9 0 2 3 14 5 19 10 21 4 1 15 1h6q27 0 60 3 14 3 19 12 3 4 72 278t69 289q0 7-57 9z"/></defs><g fill="currentColor" stroke="currentColor" stroke-width="0" transform="scale(1 -1)"><use xlink:href="#a"/><use x="854" xlink:href="#b"/><use x="1410" xlink:href="#c"/><use x="2474" xlink:href="#d"/><use x="3753" xlink:href="#e"/></g></svg>