<svg xmlns="http://www.w3.org/2000/svg" xmlns:xlink="http://www.w3.org/1999/xlink" style="vertical-align:-.755ex" width="5.832ex" height="2.634ex" viewBox="0 -809.3 2511.2 1134.2"><defs><path id="a" stroke-width="1" d="M94 250q0 69 10 131t23 107 37 88 38 67 42 52 33 34 25 21h17q14 0 14-9 0-3-17-21t-41-53-49-86-42-138-17-193 17-192 41-139 49-86 42-53 17-21q0-9-15-9h-16l-28 24q-94 85-137 212T94 250z"/><path id="b" stroke-width="1" d="M50 252q0 115 67 221t169 168 204 63q90 0 143-51 9-10 15-17t8-10l1-3q3 0 27 26 7 6 15 14t16 16 10 11l15 15h6q14 0 14-7 0-4-32-137-36-139-36-140-2-5-5-6t-18-2h-16q-6 6-6 9 0 1 1 7t2 20 1 32q0 71-32 124t-109 54q-18 0-39-3t-53-13-61-28-63-48-58-71-47-102-31-134q-2-18-2-39 0-48 14-85t36-57 50-34 52-17 45-4q54 0 99 23t62 59q3 8 15 55t12 53q0 8-13 10t-60 3h-37q-6 6-6 8t2 19q4 13 10 19h17q40-2 140-2h65q25 0 36 1t12 0q14 0 14-9 0-2-2-14-5-19-10-21-3-1-15-1-20 0-41-3-7-3-10-9t-14-51q-9-33-15-56Q589 6 586 3q-2-2-5-2-10 0-28 20t-23 31q0 1-2 0t-6-5q-74-69-200-69-121 0-196 77T50 252z"/><path id="c" stroke-width="1" d="M78 35v25l16 43 43 18q28 0 50-25t23-88q0-35-9-68t-21-57-26-41-24-27-13-9q-4 0-13 9t-9 13q0 4 11 16t25 30 26 50 16 73V9l-1-1q-2-1-5-2t-6-3-9-2-12-1q-27 0-44 17z"/><path id="d" stroke-width="1" d="M229 286q-13 134-13 150 0 18 24 28h5q4 0 6 1 12-1 22-9t10-20q0-17-6-80t-7-70l58 42q56 41 61 44t10 3q13 0 24-10t12-27q0-13-10-23-5-3-68-33t-68-32l66-31 70-35q9-9 9-23 0-15-9-25t-24-11q-8 0-18 6t-55 40l-58 42q13-134 13-150 0-10-7-19t-26-9q-19 0-26 9t-8 19q0 17 6 80t7 70l-58-42q-56-41-61-44-4-3-10-3-13 0-24 10t-12 27v8q0 3 3 6t5 6 9 7 13 7 19 9 25 11 32 15 40 20L74 315q-9 9-9 23 0 15 9 25t24 11q8 0 18-6t55-40l58-42z"/><path id="e" stroke-width="1" d="M60 749l4 1h22l28-24q94-85 137-212t43-264q0-68-10-131T261 12t-37-88-38-67-41-51-32-33-23-19l-4-4H63q-3 0-5 3t-3 9q1 1 11 13Q221-64 221 250T66 725q-10 12-11 13 0 8 5 11z"/></defs><g fill="currentColor" stroke="currentColor" stroke-width="0" transform="scale(1 -1)"><use xlink:href="#a"/><use x="389" xlink:href="#b"/><use x="1176" xlink:href="#c"/><use x="1621" xlink:href="#d"/><use x="2121" xlink:href="#e"/></g></svg>